<?xml version="1.0" encoding="utf-8"?>
<!-- Generator: Adobe Illustrator 18.1.1, SVG Export Plug-In . SVG Version: 6.00 Build 0)  -->
<!DOCTYPE svg PUBLIC "-//W3C//DTD SVG 1.1//EN" "http://www.w3.org/Graphics/SVG/1.1/DTD/svg11.dtd">
<svg version="1.1" xmlns="http://www.w3.org/2000/svg" xmlns:xlink="http://www.w3.org/1999/xlink" x="0px" y="0px"
	 viewBox="0 0 64 64" enable-background="new 0 0 64 64" xml:space="preserve">
<g id="Bg" display="none">
	<rect x="-596" y="-534" display="inline" fill="#666666" width="851" height="1053"/>
</g>
<g id="Color">
	<g>
		<polygon fill="#F9AF32" points="15.582,24.555 8.379,30.434 19.804,33.828 		"/>
		<path fill="#F9AF32" d="M-0.066,29.192c0.331-0.248,10.3-0.272,10.3-0.272l-1.855,1.514L-0.066,29.192z"/>
		<polygon fill="#F9AF32" points="29.822,28.529 23.364,40.369 19.804,33.828 15.582,24.555 		"/>
		<polygon fill="#F69A19" points="45.884,7.983 33.796,14.206 25.135,27.221 29.822,28.529 42.655,17.683 		"/>
		<polygon fill="#F9AF32" points="48.948,12.55 42.655,17.683 29.822,28.529 36.943,46.413 44.725,35.898 		"/>
		<polygon fill="#F9AF32" points="63.934,11.143 48.948,12.55 45.347,32.462 		"/>
		<polygon fill="#F9AF32" points="52.756,46.413 36.943,46.413 44.725,35.898 		"/>
		<polygon fill="#F9AF32" points="50.272,56.017 52.756,46.413 47.043,46.413 		"/>
		<polygon fill="#F9AF32" points="60.622,56.017 52.756,46.413 50.272,56.017 		"/>
		<polygon fill="#F9AF32" points="23.364,40.369 29.822,28.529 36.943,46.413 		"/>
		<polygon fill="#F27800" points="48.948,12.55 45.347,32.462 46.805,30.789 		"/>
		<polygon fill="#F27800" points="44.725,35.898 36.943,46.413 37.85,46.413 45.347,36.712 		"/>
		<polygon fill="#F27800" points="29.822,28.529 23.364,40.369 22.534,38.843 		"/>
		<polygon fill="#F27800" points="15.582,24.555 19.804,33.828 18.408,33.413 		"/>
		<polygon fill="#F27800" points="10.233,28.92 8.379,30.434 8.787,28.927 		"/>
		<polygon fill="#F27800" points="47.043,46.413 52.756,46.413 50.272,56.017 49.538,54 52.038,46.875 		"/>
	</g>
</g>
<g id="White" display="none">
	<polygon display="inline" fill="#FFFFFF" points="8.379,30.434 18.408,33.413 15.582,24.555 	"/>
	<path display="inline" fill="#FFFFFF" d="M10.233,28.92c0,0-9.969,0.023-10.3,0.272l8.445,1.242l0.409-1.507L10.233,28.92z"/>
	<polygon display="inline" fill="#FFFFFF" points="25.135,27.221 25.135,27.221 15.582,24.555 19.804,33.828 22.534,38.843 
		29.822,28.529 	"/>
	<polygon display="inline" fill="#FFFFFF" points="29.822,28.529 25.135,27.221 25.135,27.221 	"/>
	<polygon display="inline" fill="#FFFFFF" points="45.347,32.462 45.347,32.462 48.948,12.55 42.655,17.683 29.822,28.529 
		36.943,46.413 44.725,35.898 	"/>
	<polygon display="inline" fill="#FFFFFF" points="45.347,32.462 45.347,32.462 63.934,11.143 48.948,12.55 46.805,30.789 	"/>
	<polygon display="inline" fill="#FFFFFF" points="45.347,32.462 45.347,32.462 45.347,32.462 	"/>
	<polygon display="inline" fill="#FFFFFF" points="44.725,35.898 45.347,36.712 37.85,46.413 47.043,46.413 52.756,46.413 	"/>
	<polygon display="inline" fill="#FFFFFF" points="47.043,46.413 49.567,53.918 52.038,46.875 	"/>
	<polygon display="inline" fill="#FFFFFF" points="50.272,56.017 60.622,56.017 52.756,46.413 	"/>
	<polygon display="inline" fill="#FFFFFF" points="23.364,40.369 36.943,46.413 29.822,28.529 	"/>
	<polygon display="inline" fill="#FFFFFF" points="45.347,32.462 48.948,12.55 45.347,32.462 	"/>
	<polygon display="inline" fill="#FFFFFF" points="22.534,38.843 23.364,40.369 22.534,38.843 	"/>
	<polygon display="inline" fill="#FFFFFF" points="18.408,33.414 19.804,33.828 18.408,33.413 	"/>
	<polygon display="inline" fill="#FFFFFF" points="49.538,54 50.272,56.017 49.567,53.918 	"/>
	<g display="inline">
		<path fill="#FFFFFF" d="M29.822,27.667c-0.138-0.111,10.862-9.472,13.373-11.606l2.689-8.078l-12.088,6.223l-8.095,12.165
			C27.091,26.829,29.94,27.761,29.822,27.667z"/>
		<path fill="#FFFFFF" d="M25.135,27.221L25.135,27.221l2.744,0.766C26.946,27.727,25.875,27.428,25.135,27.221z"/>
		<path fill="#FFFFFF" d="M29.822,28.529c0,0-0.157-0.044-0.402-0.112L29.822,28.529z"/>
		<path fill="#FFFFFF" d="M29.228,28.363c-0.163-0.045-0.353-0.098-0.563-0.157L29.228,28.363z"/>
	</g>
</g>
</svg>
